PathFileType	4	(X/Y/Z)	/Users/niels/Desktop/University/Third Semester/Perception and Action/Exam/Gymnastics Motion Tracking/Code for Gym Tracking/Analyzed Data/Webcam_Backflip/id2_1_baseline_Sports2D/id2_1_baseline_Sports2D_px_person00.trc
DataRate	CameraRate	NumFrames	NumMarkers	Units	OrigDataRate	OrigDataStartFrame	OrigNumFrames
29.92207792207792	29.92207792207792	9	22	m	29.92207792207792	336	385
Frame#	Time	Hip			RHip			RKnee			RAnkle			RBigToe			RSmallToe			RHeel			LHip			LKnee			LAnkle			LBigToe			LSmallToe			LHeel			Neck			Head			Nose			RShoulder			RElbow			RWrist			LShoulder			LElbow			LWrist		
		X1	Y1	Z1	X2	Y2	Z2	X3	Y3	Z3	X4	Y4	Z4	X5	Y5	Z5	X6	Y6	Z6	X7	Y7	Z7	X8	Y8	Z8	X9	Y9	Z9	X10	Y10	Z10	X11	Y11	Z11	X12	Y12	Z12	X13	Y13	Z13	X14	Y14	Z14	X15	Y15	Z15	X16	Y16	Z16	X17	Y17	Z17	X18	Y18	Z18	X19	Y19	Z19	X20	Y20	Z20	X21	Y21	Z21	X22	Y22	Z22
336	11.229166666666666	0.8765148581838508	-0.32082166921906596	0.0	0.8693446339725457	-0.31458543934181726	0.0	0.8746977624959579	-0.6165713683085353	0.0	0.8656413102532514	-0.8811531294368378	0.0	0.9229072698791276	-0.971902457580501	0.0	0.8990092068056226	-0.9724089821501124	0.0	0.8420565005232817	-0.9081183724793246	0.0	0.8839734666434673	-0.3187378049353478	0.0	0.8805710093786815	-0.6041464093323496	0.0	0.8772163827989646	-0.8578533400213261	0.0	0.9421564656572048	-0.9412020125782983	0.0	0.9404026482740195	-0.9192415969061553	0.0	0.8477979219351043	-0.8929151768729292	0.0	0.9269886895198332	-0.011270140022459362	0.0	1.0136985530780476	0.05445819559117975	0.0	1.0184007297291493	0.046143015530160696	0.0	0.9393117755520148	-0.019687516905214107	0.0	1.0001189682323586	-0.022380670383177585	0.0	1.01061312968492	-0.036962748757264685	0.0	0.8860272090678111	-0.032804521990315624	0.0	0.8925647088053497	-0.16605638368312176	0.0	0.9217169346210321	-0.23827280702160664	0.0
337	11.262586805555555	0.8786501201031339	-0.30467447903853784	0.0	0.8754655444678112	-0.295815796699382	0.0	0.8761674611767439	-0.6037093329464245	0.0	0.8714525112961617	-0.8689809210014138	0.0	0.9280701930908949	-0.9615648391163768	0.0	0.9058203297003875	-0.9620686016399959	0.0	0.8485352438357022	-0.8970656525530477	0.0	0.878174165768003	-0.29870925247195096	0.0	0.8808800812221099	-0.5913657419623548	0.0	0.8795173304467718	-0.8464831159739955	0.0	0.944197671346809	-0.934027089910697	0.0	0.9412467304702203	-0.9121972570361967	0.0	0.8519977003999243	-0.8838098044661602	0.0	0.9275250406032394	-0.009802469880483725	0.0	1.013192667826148	0.03452839495535149	0.0	1.0165517167817935	0.0646949986868887	0.0	0.9494369933770206	-0.01702278506832587	0.0	0.9966077392761611	-0.03873898532723887	0.0	1.0063377352821097	-0.06435602350201411	0.0	0.882828620096664	-0.02672127871554556	0.0	0.8768269346405089	-0.15809324978807193	0.0	0.9052809547085449	-0.23217831443775627	0.0
338	11.296006944444445	0.8805443395134909	-0.29174975172283957	0.0	0.8818107711289641	-0.2804014445705596	0.0	0.8785084024990661	-0.5934288114776577	0.0	0.8767759774696573	-0.8591785219051624	0.0	0.9333988821985395	-0.9528715280513773	0.0	0.9127398851655277	-0.9536272460727572	0.0	0.8542717789840631	-0.8885256742987878	0.0	0.8714970487613298	-0.2817821507435554	0.0	0.8820541499519516	-0.5810472488068698	0.0	0.8811071139083576	-0.8372038686258703	0.0	0.9464162239298554	-0.9277473171947803	0.0	0.9420497534086973	-0.9065009438099991	0.0	0.8550677032076539	-0.876680919823713	0.0	0.9277999819225167	-0.00934022244911124	0.0	1.0113629120071808	0.016317179715491098	0.0	1.014033651160874	0.08215544927922776	0.0	0.959522893619142	-0.015962626379686817	0.0	0.9951301996421	-0.05652397328185358	0.0	1.0039292741724535	-0.09077911773861495	0.0	0.878637591689494	-0.021651789898641638	0.0	0.8624484489461497	-0.1492880167832444	0.0	0.892394866675498	-0.21915036897408938	0.0
339	11.329427083333334	0.8825048145430424	-0.2831686613778509	0.0	0.8882417823236464	-0.2699279494283159	0.0	0.8812041678768917	-0.5867600791248112	0.0	0.8816995294721145	-0.85336518880867	0.0	0.93888204462576	-0.9470127425173248	0.0	0.9196247349446602	-0.9482277014806242	0.0	0.8592972705017456	-0.8839119781282037	0.0	0.865119897506328	-0.2697623384868517	0.0	0.8835115967574332	-0.5741884333723891	0.0	0.8824873892757057	-0.8316325594925392	0.0	0.9491270368776108	-0.923396004530548	0.0	0.9433905066864482	-0.9030870892493051	0.0	0.8573287229675872	-0.8728757956704519	0.0	0.9277447459633991	-0.009058192264574895	0.0	1.0081875547064223	0.006615239460974445	0.0	1.0112809535597558	0.09730911139720752	0.0	0.9685650055547652	-0.016220013706550362	0.0	0.9947206827998497	-0.0744499789748787	0.0	1.0019347184064216	-0.11370635967549987	0.0	0.873774099776366	-0.017591844032966583	0.0	0.8495400076309653	-0.14131933784632048	0.0	0.8828243094654951	-0.20445305079108608	0.0
340	11.362847222222221	0.8847005318472141	-0.28153429737558444	0.0	0.8943950237436747	-0.2674665789193213	0.0	0.8843668734406067	-0.585823759673667	0.0	0.885959769748574	-0.8538205575750868	0.0	0.9446147268396243	-0.9455629873727506	0.0	0.9263897624492046	-0.9475097258687861	0.0	0.8632200178265557	-0.8853484988135027	0.0	0.8602497649357291	-0.2659435047324791	0.0	0.8854514825263037	-0.5729080938409353	0.0	0.8840202809007168	-0.8318788440225657	0.0	0.9528130613538149	-0.9222529835084501	0.0	0.9458938948109882	-0.903217738673156	0.0	0.8587680978535295	-0.8741853933674549	0.0	0.9273270054446935	-0.009324237292779342	0.0	1.0036677692299607	0.010244858308725506	0.0	1.0085936353413387	0.1074412935855636	0.0	0.9750319430239026	-0.01871086589603847	0.0	0.9944655496604579	-0.09111509550983503	0.0	0.999794019611638	-0.13000789985699504	0.0	0.8689255647826589	-0.015851570585682654	0.0	0.8394575785379605	-0.1355841978528786	0.0	0.8779583918729617	-0.19224148409604008	0.0
341	11.39626736111111	0.8871906034130768	-0.28997925842508687	0.0	0.8996274071335556	-0.27643524342326237	0.0	0.888637465172653	-0.5930397726346645	0.0	0.88893320444787	-0.8625404437001072	0.0	0.9506848430520031	-0.949862229430597	0.0	0.932912732827838	-0.9529573257655196	0.0	0.8652975393185597	-0.8947604690432502	0.0	0.8581673703364767	-0.2739994019764588	0.0	0.888848439576061	-0.5797063437526523	0.0	0.8858766104574013	-0.8396608034078846	0.0	0.957952654467241	-0.9254080131556013	0.0	0.9500196937333345	-0.907966339802562	0.0	0.859069416328647	-0.882061244074419	0.0	0.9266646548774817	-0.011644468108307132	0.0	0.9982613191349643	0.02709392113597666	0.0	1.0061919336968799	0.10865472252268825	0.0	0.9769512452186477	-0.025070661718633102	0.0	0.9932759369396037	-0.10392378104854047	0.0	0.997787505540784	-0.13563982711647787	0.0	0.865452711663539	-0.018795250450341888	0.0	0.834668423109732	-0.1325721302803464	0.0	0.880257309975981	-0.1847995657591679	0.0
342	11.4296875	0.8899306986244815	-0.31038164816667974	0.0	0.903060835385769	-0.2985624906868518	0.0	0.8949676000625726	-0.6097012305953737	0.0	0.8897854948021144	-0.8797021624871668	0.0	0.9570111001108239	-0.9599207663420207	0.0	0.9389388164831196	-0.9647119686631745	0.0	0.8647059739644815	-0.912372152029784	0.0	0.8600869281469078	-0.2959291802006394	0.0	0.8952854914315762	-0.5960786342961164	0.0	0.8880206425322393	-0.854935733980305	0.0	0.964730353773764	-0.9329709055669393	0.0	0.9557842791500438	-0.9173330619775542	0.0	0.857842154896337	-0.8963723861578158	0.0	0.9261471769750856	-0.018388429468700593	0.0	0.9932867792568122	0.04953963893997134	0.0	1.0042728337841162	0.09703620807311644	0.0	0.9724481569026471	-0.03687100440110597	0.0	0.9897036453277763	-0.10904091183293395	0.0	0.9968353616843532	-0.1265858904550499	0.0	0.8655869484786181	-0.029213308683762883	0.0	0.8382391826533301	-0.13139156761181067	0.0	0.8918298535613468	-0.18175163259182814	0.0
343	11.46310763888889	0.8927630199486796	-0.34175702010350406	0.0	0.9038468435481254	-0.3322840175706704	0.0	0.9042637277591946	-0.6348060214644914	0.0	0.8878648543532043	-0.9027704775518323	0.0	0.9631897131694239	-0.973743791081511	0.0	0.9439860290898823	-0.9807500327772471	0.0	0.8609879102887733	-0.9357516938812905	0.0	0.8668661776053151	-0.330326909825314	0.0	0.9064556031033951	-0.6212917296136066	0.0	0.8903029868104252	-0.8752778614247468	0.0	0.9728132034891251	-0.9435830232307814	0.0	0.9626966202138132	-0.9297641604006694	0.0	0.8550753041711471	-0.9147964736238546	0.0	0.9263340670373318	-0.031952404733467006	0.0	0.9905931345025469	0.06542921792142445	0.0	1.0029236442400506	0.07084846687431612	0.0	0.9606891223579486	-0.05476586573088174	0.0	0.9822486846062595	-0.10380472386716479	0.0	0.9980802780278009	-0.10220288769230618	0.0	0.8721029766121697	-0.049230997098189275	0.0	0.8532530370490669	-0.130463000305793	0.0	0.9129441786604843	-0.17963753621195025	0.0
344	11.496527777777777	0.8953947093103659	-0.3800138560546004	0.0	0.9015691937079873	-0.37292598849128755	0.0	0.9169234673019608	-0.6649828463794296	0.0	0.883283988349902	-0.9273011035264843	0.0	0.9685485673755663	-0.9881422822580956	0.0	0.9473783871477126	-0.9975883153347063	0.0	0.854561453690452	-0.9604455083449736	0.0	0.8786106403870357	-0.37242913866239963	0.0	0.9231922761422853	-0.6521714839711447	0.0	0.892621942934625	-0.896857331538029	0.0	0.9814487257470953	-0.9550516340089512	0.0	0.9700459988606243	-0.9428994534716344	0.0	0.8515693674131326	-0.9337392536871938	0.0	0.9274238376990207	-0.05315598721529521	0.0	0.991308579844542	0.06631205297774868	0.0	1.0018010398988617	0.03277434061242027	0.0	0.9425432542647398	-0.07778444827097697	0.0	0.9705367397051177	-0.09051730725488366	0.0	1.002584853864289	-0.06969972426585735	0.0	0.8869907562855575	-0.07866541765807386	0.0	0.8820252948568338	-0.12949431316089782	0.0	0.9423076910762153	-0.1731175472508528	0.0
